<svg width="21" height="21" viewBox="0 0 21 21" fill="none" xmlns="http://www.w3.org/2000/svg">
<path d="M10.5 20.5C4.977 20.5 0.5 16.023 0.5 10.5C0.5 4.977 4.977 0.5 10.5 0.5C16.023 0.5 20.5 4.977 20.5 10.5C20.5 16.023 16.023 20.5 10.5 20.5ZM10.5 18.5C12.6217 18.5 14.6566 17.6571 16.1569 16.1569C17.6571 14.6566 18.5 12.6217 18.5 10.5C18.5 8.37827 17.6571 6.34344 16.1569 4.84315C14.6566 3.34285 12.6217 2.5 10.5 2.5C8.37827 2.5 6.34344 3.34285 4.84315 4.84315C3.34285 6.34344 2.5 8.37827 2.5 10.5C2.5 12.6217 3.34285 14.6566 4.84315 16.1569C6.34344 17.6571 8.37827 18.5 10.5 18.5ZM9.5 5.5H11.5V7.5H9.5V5.5ZM9.5 9.5H11.5V15.5H9.5V9.5Z" fill="#A4A4A4"/>
</svg>
